<?xml version="1.0" encoding="utf-8"?>
<!-- Generator: Adobe Illustrator 22.0.1, SVG Export Plug-In . SVG Version: 6.00 Build 0)  -->
<svg version="1.1" id="Banner" xmlns="http://www.w3.org/2000/svg" xmlns:xlink="http://www.w3.org/1999/xlink" x="0px" y="0px"
	 viewBox="0 0 432 432" enable-background="new 0 0 432 432" xml:space="preserve">
<rect id="Background" fill="#0D0D19" width="432" height="432"/>
<g id="design">
	<defs>
		<rect id="SVGID_1_" width="432" height="432"/>
	</defs>
	<clipPath id="SVGID_2_">
		<use xlink:href="#SVGID_1_"  overflow="visible"/>
	</clipPath>
	<g clip-path="url(#SVGID_2_)">
		<g>
			<g>
				<path fill="#DACC00" d="M329.332,102.668L329.332,102.668c-5.623-5.623-5.623-14.741,0-20.364l184.973-184.973
					c5.623-5.623,14.741-5.623,20.364,0v0c5.623,5.623,5.623,14.741,0,20.364L349.696,102.668
					C344.072,108.292,334.955,108.292,329.332,102.668z"/>
				<path fill="#FB38DF" d="M380.524,94.749L380.524,94.749c-3.749-3.749-3.749-9.827,0-13.576L503.839-42.142
					c3.749-3.749,9.827-3.749,13.576,0l0,0c3.749,3.749,3.749,9.827,0,13.576L394.1,94.749
					C390.352,98.498,384.273,98.498,380.524,94.749z"/>
				<path fill="#DA4200" d="M323.392,72.122L323.392,72.122c-1.874-1.874-1.874-4.914,0-6.788L432-43.273
					c1.874-1.874,4.914-1.874,6.788,0l0,0c1.874,1.874,1.874,4.914,0,6.788L330.18,72.122
					C328.306,73.997,325.267,73.997,323.392,72.122z"/>
			</g>
			<g>
				<g>
					<path fill="#FFFFFF" d="M301.807,40.394c3.217,0,3.223-5,0-5C298.59,35.394,298.585,40.394,301.807,40.394L301.807,40.394z"/>
				</g>
			</g>
			<g>
				<g>
					<path fill="#FFFFFF" d="M367.805,114.263c8.365,0,8.379-13,0-13C359.44,101.263,359.426,114.263,367.805,114.263
						L367.805,114.263z"/>
				</g>
			</g>
			<g>
				<g>
					<path fill="#FFFFFF" d="M418.203,119.463c5.791,0,5.801-9,0-9C412.412,110.463,412.403,119.463,418.203,119.463
						L418.203,119.463z"/>
				</g>
			</g>
			<g>
				<g>
					<path fill="#DACC00" d="M300.607,78.664c5.791,0,5.801-9,0-9C294.816,69.664,294.807,78.664,300.607,78.664L300.607,78.664z"/>
				</g>
			</g>
			<circle fill="none" stroke="#DACC00" stroke-miterlimit="10" cx="300.607" cy="74.164" r="10.2"/>
			<polygon fill="#DACC00" points="295.95,43.521 310.841,39.53 299.94,28.629 			"/>
			<circle fill="none" stroke="#FB38DF" stroke-miterlimit="10" cx="393.004" cy="114.963" r="7.17"/>
			<g>
				<defs>
					<circle id="SVGID_3_" cx="346.975" cy="128.48" r="13.518"/>
				</defs>
				<clipPath id="SVGID_4_">
					<use xlink:href="#SVGID_3_"  overflow="visible"/>
				</clipPath>
				
					<line clip-path="url(#SVGID_4_)" fill="none" stroke="#FB38DF" stroke-miterlimit="10" x1="335.43" y1="112.04" x2="318.874" y2="145.963"/>
				
					<line clip-path="url(#SVGID_4_)" fill="none" stroke="#FB38DF" stroke-miterlimit="10" x1="337.639" y1="112.078" x2="321.083" y2="146.002"/>
				
					<line clip-path="url(#SVGID_4_)" fill="none" stroke="#FB38DF" stroke-miterlimit="10" x1="339.848" y1="112.117" x2="323.292" y2="146.041"/>
				
					<line clip-path="url(#SVGID_4_)" fill="none" stroke="#FB38DF" stroke-miterlimit="10" x1="342.058" y1="112.156" x2="325.501" y2="146.079"/>
				
					<line clip-path="url(#SVGID_4_)" fill="none" stroke="#FB38DF" stroke-miterlimit="10" x1="344.267" y1="112.194" x2="327.71" y2="146.118"/>
				
					<line clip-path="url(#SVGID_4_)" fill="none" stroke="#FB38DF" stroke-miterlimit="10" x1="346.476" y1="112.233" x2="329.919" y2="146.156"/>
				
					<line clip-path="url(#SVGID_4_)" fill="none" stroke="#FB38DF" stroke-miterlimit="10" x1="348.685" y1="112.271" x2="332.128" y2="146.195"/>
				
					<line clip-path="url(#SVGID_4_)" fill="none" stroke="#FB38DF" stroke-miterlimit="10" x1="350.894" y1="112.31" x2="334.337" y2="146.233"/>
				
					<line clip-path="url(#SVGID_4_)" fill="none" stroke="#FB38DF" stroke-miterlimit="10" x1="353.103" y1="112.349" x2="336.546" y2="146.272"/>
				
					<line clip-path="url(#SVGID_4_)" fill="none" stroke="#FB38DF" stroke-miterlimit="10" x1="355.312" y1="112.387" x2="338.755" y2="146.311"/>
				
					<line clip-path="url(#SVGID_4_)" fill="none" stroke="#FB38DF" stroke-miterlimit="10" x1="357.521" y1="112.426" x2="340.964" y2="146.349"/>
				
					<line clip-path="url(#SVGID_4_)" fill="none" stroke="#FB38DF" stroke-miterlimit="10" x1="359.73" y1="112.464" x2="343.173" y2="146.388"/>
				
					<line clip-path="url(#SVGID_4_)" fill="none" stroke="#FB38DF" stroke-miterlimit="10" x1="361.939" y1="112.503" x2="345.382" y2="146.426"/>
				
					<line clip-path="url(#SVGID_4_)" fill="none" stroke="#FB38DF" stroke-miterlimit="10" x1="364.148" y1="112.541" x2="347.591" y2="146.465"/>
				
					<line clip-path="url(#SVGID_4_)" fill="none" stroke="#FB38DF" stroke-miterlimit="10" x1="366.357" y1="112.58" x2="349.801" y2="146.504"/>
				
					<line clip-path="url(#SVGID_4_)" fill="none" stroke="#FB38DF" stroke-miterlimit="10" x1="368.566" y1="112.619" x2="352.01" y2="146.542"/>
				
					<line clip-path="url(#SVGID_4_)" fill="none" stroke="#FB38DF" stroke-miterlimit="10" x1="370.775" y1="112.657" x2="354.219" y2="146.581"/>
				
					<line clip-path="url(#SVGID_4_)" fill="none" stroke="#FB38DF" stroke-miterlimit="10" x1="372.984" y1="112.696" x2="356.428" y2="146.619"/>
				
					<line clip-path="url(#SVGID_4_)" fill="none" stroke="#FB38DF" stroke-miterlimit="10" x1="375.193" y1="112.734" x2="358.637" y2="146.658"/>
				
					<line clip-path="url(#SVGID_4_)" fill="none" stroke="#FB38DF" stroke-miterlimit="10" x1="377.402" y1="112.773" x2="360.846" y2="146.696"/>
				
					<line clip-path="url(#SVGID_4_)" fill="none" stroke="#FB38DF" stroke-miterlimit="10" x1="379.611" y1="112.811" x2="363.055" y2="146.735"/>
				
					<line clip-path="url(#SVGID_4_)" fill="none" stroke="#FB38DF" stroke-miterlimit="10" x1="381.82" y1="112.85" x2="365.264" y2="146.774"/>
				
					<line clip-path="url(#SVGID_4_)" fill="none" stroke="#FB38DF" stroke-miterlimit="10" x1="384.029" y1="112.889" x2="367.473" y2="146.812"/>
			</g>
			<g>
				<defs>
					<circle id="SVGID_5_" cx="424.916" cy="155.564" r="27.084"/>
				</defs>
				<clipPath id="SVGID_6_">
					<use xlink:href="#SVGID_5_"  overflow="visible"/>
				</clipPath>
				
					<line clip-path="url(#SVGID_6_)" fill="none" stroke="#FB38DF" stroke-miterlimit="10" x1="401.785" y1="122.624" x2="368.613" y2="190.593"/>
				
					<line clip-path="url(#SVGID_6_)" fill="none" stroke="#FB38DF" stroke-miterlimit="10" x1="406.211" y1="122.702" x2="373.039" y2="190.671"/>
				
					<line clip-path="url(#SVGID_6_)" fill="none" stroke="#FB38DF" stroke-miterlimit="10" x1="410.637" y1="122.779" x2="377.465" y2="190.748"/>
				
					<line clip-path="url(#SVGID_6_)" fill="none" stroke="#FB38DF" stroke-miterlimit="10" x1="415.063" y1="122.856" x2="381.891" y2="190.825"/>
				
					<line clip-path="url(#SVGID_6_)" fill="none" stroke="#FB38DF" stroke-miterlimit="10" x1="419.489" y1="122.934" x2="386.317" y2="190.902"/>
				
					<line clip-path="url(#SVGID_6_)" fill="none" stroke="#FB38DF" stroke-miterlimit="10" x1="423.915" y1="123.011" x2="390.743" y2="190.98"/>
				
					<line clip-path="url(#SVGID_6_)" fill="none" stroke="#FB38DF" stroke-miterlimit="10" x1="428.341" y1="123.088" x2="395.169" y2="191.057"/>
				
					<line clip-path="url(#SVGID_6_)" fill="none" stroke="#FB38DF" stroke-miterlimit="10" x1="432.767" y1="123.166" x2="399.595" y2="191.134"/>
				
					<line clip-path="url(#SVGID_6_)" fill="none" stroke="#FB38DF" stroke-miterlimit="10" x1="437.193" y1="123.243" x2="404.021" y2="191.212"/>
				
					<line clip-path="url(#SVGID_6_)" fill="none" stroke="#FB38DF" stroke-miterlimit="10" x1="441.619" y1="123.32" x2="408.447" y2="191.289"/>
				
					<line clip-path="url(#SVGID_6_)" fill="none" stroke="#FB38DF" stroke-miterlimit="10" x1="446.045" y1="123.397" x2="412.873" y2="191.366"/>
				
					<line clip-path="url(#SVGID_6_)" fill="none" stroke="#FB38DF" stroke-miterlimit="10" x1="450.471" y1="123.475" x2="417.299" y2="191.443"/>
				
					<line clip-path="url(#SVGID_6_)" fill="none" stroke="#FB38DF" stroke-miterlimit="10" x1="454.897" y1="123.552" x2="421.725" y2="191.521"/>
				
					<line clip-path="url(#SVGID_6_)" fill="none" stroke="#FB38DF" stroke-miterlimit="10" x1="459.323" y1="123.629" x2="426.151" y2="191.598"/>
				
					<line clip-path="url(#SVGID_6_)" fill="none" stroke="#FB38DF" stroke-miterlimit="10" x1="463.749" y1="123.707" x2="430.577" y2="191.675"/>
				
					<line clip-path="url(#SVGID_6_)" fill="none" stroke="#FB38DF" stroke-miterlimit="10" x1="468.175" y1="123.784" x2="435.003" y2="191.753"/>
				
					<line clip-path="url(#SVGID_6_)" fill="none" stroke="#FB38DF" stroke-miterlimit="10" x1="472.601" y1="123.861" x2="439.429" y2="191.83"/>
				
					<line clip-path="url(#SVGID_6_)" fill="none" stroke="#FB38DF" stroke-miterlimit="10" x1="477.027" y1="123.939" x2="443.855" y2="191.907"/>
				
					<line clip-path="url(#SVGID_6_)" fill="none" stroke="#FB38DF" stroke-miterlimit="10" x1="481.453" y1="124.016" x2="448.281" y2="191.985"/>
				
					<line clip-path="url(#SVGID_6_)" fill="none" stroke="#FB38DF" stroke-miterlimit="10" x1="485.879" y1="124.093" x2="452.707" y2="192.062"/>
				
					<line clip-path="url(#SVGID_6_)" fill="none" stroke="#FB38DF" stroke-miterlimit="10" x1="490.305" y1="124.17" x2="457.133" y2="192.139"/>
				
					<line clip-path="url(#SVGID_6_)" fill="none" stroke="#FB38DF" stroke-miterlimit="10" x1="494.731" y1="124.248" x2="461.559" y2="192.216"/>
				
					<line clip-path="url(#SVGID_6_)" fill="none" stroke="#FB38DF" stroke-miterlimit="10" x1="499.157" y1="124.325" x2="465.985" y2="192.294"/>
			</g>
			<g>
				
					<rect x="263.588" y="14.599" transform="matrix(0.7071 -0.7071 0.7071 0.7071 62.6996 200.7534)" fill="none" stroke="#FFFFFF" stroke-miterlimit="10" width="20.186" height="20.186"/>
				
					<rect x="266.952" y="17.963" transform="matrix(0.7071 -0.7071 0.7071 0.7071 62.6996 200.7534)" fill="none" stroke="#FFFFFF" stroke-miterlimit="10" width="13.457" height="13.457"/>
				
					<rect x="270.316" y="21.327" transform="matrix(0.7071 -0.7071 0.7071 0.7071 62.6996 200.7534)" fill="none" stroke="#FFFFFF" stroke-miterlimit="10" width="6.729" height="6.729"/>
			</g>
			<g>
				
					<rect x="351.998" y="158.989" transform="matrix(0.7071 -0.7071 0.7071 0.7071 -12.8432 303.9621)" fill="none" stroke="#FFFFFF" stroke-miterlimit="10" width="16.99" height="16.99"/>
				
					<rect x="354.83" y="161.821" transform="matrix(0.7071 -0.7071 0.7071 0.7071 -12.8432 303.9621)" fill="none" stroke="#FFFFFF" stroke-miterlimit="10" width="11.326" height="11.326"/>
				
					<rect x="357.661" y="164.653" transform="matrix(0.7071 -0.7071 0.7071 0.7071 -12.8432 303.9621)" fill="none" stroke="#FFFFFF" stroke-miterlimit="10" width="5.663" height="5.663"/>
			</g>
			<g>
				<line fill="none" stroke="#DACC00" stroke-miterlimit="10" x1="286.1" y1="52.674" x2="271.84" y2="66.409"/>
				<line fill="none" stroke="#DACC00" stroke-miterlimit="10" x1="284.268" y1="59.853" x2="270.007" y2="73.588"/>
			</g>
			<g>
				<line fill="none" stroke="#DACC00" stroke-miterlimit="10" x1="298.454" y1="97.336" x2="284.193" y2="111.071"/>
				<line fill="none" stroke="#DACC00" stroke-miterlimit="10" x1="296.622" y1="104.515" x2="282.361" y2="118.25"/>
			</g>
			<g>
				<line fill="none" stroke="#DA4200" stroke-miterlimit="10" x1="389.137" y1="131.541" x2="374.876" y2="145.276"/>
				<line fill="none" stroke="#DA4200" stroke-miterlimit="10" x1="387.304" y1="138.72" x2="373.044" y2="152.455"/>
			</g>
			<g>
				<g>
					<path fill="#DA4200" d="M385.204,177.76c3.217,0,3.223-5,0-5C381.987,172.76,381.982,177.76,385.204,177.76L385.204,177.76z"/>
				</g>
			</g>
			<g>
				<g>
					<path fill="#DA4200" d="M329.973,155.061c5.791,0,5.801-9,0-9C324.182,146.061,324.173,155.061,329.973,155.061
						L329.973,155.061z"/>
				</g>
			</g>
			<polygon fill="none" stroke="#DA4200" stroke-miterlimit="10" points="299.099,40.371 313.991,36.381 303.089,25.48 			"/>
			<polygon fill="#DA4200" points="383.984,200.689 398.875,196.699 387.974,185.797 			"/>
			<polygon fill="none" stroke="#DACC00" stroke-miterlimit="10" points="387.133,197.539 402.025,193.549 391.123,182.648 			"/>
			<polygon fill="#DACC00" points="307.966,134.707 318.246,131.953 310.721,124.427 			"/>
			<polygon fill="none" stroke="#DA4200" stroke-miterlimit="10" points="310.14,132.533 320.42,129.779 312.895,122.253 			"/>
			<g>
				<g>
					<path fill="#DA4200" d="M314.207,108.263c5.791,0,5.801-9,0-9C308.416,99.263,308.406,108.263,314.207,108.263L314.207,108.263
						z"/>
				</g>
			</g>
			<g>
				<g>
					<path fill="#DA4200" d="M320.607,52.965c2.574,0,2.578-4,0-4C318.033,48.965,318.029,52.965,320.607,52.965L320.607,52.965z"/>
				</g>
			</g>
			<g>
				<g>
					<path fill="#DA4200" d="M322.207,82.064c1.93,0,1.934-3,0-3C320.276,79.064,320.273,82.064,322.207,82.064L322.207,82.064z"/>
				</g>
			</g>
			<g>
				<g>
					<path fill="#DA4200" d="M370.605,90.863c1.93,0,1.934-3,0-3C368.675,87.863,368.671,90.863,370.605,90.863L370.605,90.863z"/>
				</g>
			</g>
			<g>
				<defs>
					
						<rect id="SVGID_7_" x="305.969" y="-35.864" transform="matrix(0.7071 -0.7071 0.7071 0.7071 102.5868 238.1707)" width="65.644" height="62.231"/>
				</defs>
				<clipPath id="SVGID_8_">
					<use xlink:href="#SVGID_7_"  overflow="visible"/>
				</clipPath>
				<g clip-path="url(#SVGID_8_)">
					
						<line fill="none" stroke="#DA4200" stroke-linecap="round" stroke-miterlimit="10" x1="271.737" y1="-12.558" x2="346.059" y2="61.764"/>
					
						<line fill="none" stroke="#DA4200" stroke-linecap="round" stroke-miterlimit="10" x1="275.737" y1="-16.559" x2="350.06" y2="57.764"/>
					
						<line fill="none" stroke="#DA4200" stroke-linecap="round" stroke-miterlimit="10" x1="279.738" y1="-20.559" x2="354.06" y2="53.764"/>
					
						<line fill="none" stroke="#DA4200" stroke-linecap="round" stroke-miterlimit="10" x1="283.738" y1="-24.559" x2="358.06" y2="49.763"/>
					
						<line fill="none" stroke="#DA4200" stroke-linecap="round" stroke-miterlimit="10" x1="287.738" y1="-28.56" x2="362.061" y2="45.763"/>
					
						<line fill="none" stroke="#DA4200" stroke-linecap="round" stroke-miterlimit="10" x1="291.739" y1="-32.56" x2="366.061" y2="41.762"/>
					
						<line fill="none" stroke="#DA4200" stroke-linecap="round" stroke-miterlimit="10" x1="295.739" y1="-36.56" x2="370.062" y2="37.762"/>
					
						<line fill="none" stroke="#DA4200" stroke-linecap="round" stroke-miterlimit="10" x1="299.739" y1="-40.561" x2="374.062" y2="33.762"/>
					
						<line fill="none" stroke="#DA4200" stroke-linecap="round" stroke-miterlimit="10" x1="303.74" y1="-44.561" x2="378.062" y2="29.761"/>
					
						<line fill="none" stroke="#DA4200" stroke-linecap="round" stroke-miterlimit="10" x1="307.74" y1="-48.562" x2="382.063" y2="25.761"/>
					
						<line fill="none" stroke="#DA4200" stroke-linecap="round" stroke-miterlimit="10" x1="311.741" y1="-52.562" x2="386.063" y2="21.761"/>
					
						<line fill="none" stroke="#DA4200" stroke-linecap="round" stroke-miterlimit="10" x1="315.741" y1="-56.562" x2="390.064" y2="17.76"/>
					
						<line fill="none" stroke="#DA4200" stroke-linecap="round" stroke-miterlimit="10" x1="319.741" y1="-60.563" x2="394.064" y2="13.76"/>
					
						<line fill="none" stroke="#DA4200" stroke-linecap="round" stroke-miterlimit="10" x1="323.742" y1="-64.563" x2="398.064" y2="9.759"/>
					
						<line fill="none" stroke="#DA4200" stroke-linecap="round" stroke-miterlimit="10" x1="327.742" y1="-68.564" x2="402.065" y2="5.759"/>
					
						<line fill="none" stroke="#DA4200" stroke-linecap="round" stroke-miterlimit="10" x1="331.743" y1="-72.564" x2="406.065" y2="1.759"/>
					
						<line fill="none" stroke="#DA4200" stroke-linecap="round" stroke-miterlimit="10" x1="335.743" y1="-76.564" x2="410.065" y2="-2.242"/>
				</g>
			</g>
			
				<linearGradient id="SVGID_9_" gradientUnits="userSpaceOnUse" x1="-253.6956" y1="409.0181" x2="-253.6956" y2="484.0056" gradientTransform="matrix(-0.3228 -0.3228 0.7699 -0.7699 -152.9241 313.554)">
				<stop  offset="0" style="stop-color:#DACC00"/>
				<stop  offset="0.2723" style="stop-color:#9E8517;stop-opacity:0.7277"/>
				<stop  offset="0.5215" style="stop-color:#6D4C2A;stop-opacity:0.4785"/>
				<stop  offset="0.7334" style="stop-color:#4A2338;stop-opacity:0.2666"/>
				<stop  offset="0.8998" style="stop-color:#350940;stop-opacity:0.1002"/>
				<stop  offset="1" style="stop-color:#2D0043;stop-opacity:0"/>
			</linearGradient>
			<path fill="url(#SVGID_9_)" d="M317.571,6.847L317.571,6.847c0.221,0.221,0.221,0.578,0,0.799l-83.167,83.167
				c-0.221,0.221-0.578,0.221-0.799,0l0,0c-0.221-0.221-0.221-0.578,0-0.799l83.167-83.167
				C316.993,6.627,317.351,6.627,317.571,6.847z"/>
			
				<linearGradient id="SVGID_10_" gradientUnits="userSpaceOnUse" x1="-538.1771" y1="422.396" x2="-538.1771" y2="497.3835" gradientTransform="matrix(-0.3228 -0.3228 0.7699 -0.7699 -152.9241 313.554)">
				<stop  offset="0" style="stop-color:#DACC00"/>
				<stop  offset="0.2723" style="stop-color:#9E8517;stop-opacity:0.7277"/>
				<stop  offset="0.5215" style="stop-color:#6D4C2A;stop-opacity:0.4785"/>
				<stop  offset="0.7334" style="stop-color:#4A2338;stop-opacity:0.2666"/>
				<stop  offset="0.8998" style="stop-color:#350940;stop-opacity:0.1002"/>
				<stop  offset="1" style="stop-color:#2D0043;stop-opacity:0"/>
			</linearGradient>
			<path fill="url(#SVGID_10_)" d="M419.704,88.379L419.704,88.379c0.221,0.221,0.221,0.578,0,0.799l-83.167,83.167
				c-0.221,0.221-0.578,0.221-0.799,0l0,0c-0.221-0.221-0.221-0.578,0-0.799l83.167-83.167
				C419.126,88.159,419.483,88.159,419.704,88.379z"/>
			
				<linearGradient id="SVGID_11_" gradientUnits="userSpaceOnUse" x1="-166.2335" y1="443.2093" x2="-166.2335" y2="518.1968" gradientTransform="matrix(-0.3228 -0.3228 0.7699 -0.7699 -152.9241 313.554)">
				<stop  offset="0" style="stop-color:#FB38DF"/>
				<stop  offset="0.2774" style="stop-color:#B224A8;stop-opacity:0.7226"/>
				<stop  offset="0.5249" style="stop-color:#79157D;stop-opacity:0.4751"/>
				<stop  offset="0.7354" style="stop-color:#50095D;stop-opacity:0.2646"/>
				<stop  offset="0.9005" style="stop-color:#36034A;stop-opacity:0.0995"/>
				<stop  offset="1" style="stop-color:#2D0043;stop-opacity:0"/>
			</linearGradient>
			<path fill="url(#SVGID_11_)" d="M315.664-47.711L315.664-47.711c0.221,0.221,0.221,0.578,0,0.799l-83.167,83.167
				c-0.221,0.221-0.578,0.221-0.799,0v0c-0.221-0.221-0.221-0.578,0-0.799l83.167-83.167
				C315.085-47.932,315.443-47.932,315.664-47.711z"/>
			
				<linearGradient id="SVGID_12_" gradientUnits="userSpaceOnUse" x1="-718.6369" y1="425.3333" x2="-718.6369" y2="500.3208" gradientTransform="matrix(-0.3228 -0.3228 0.7699 -0.7699 -152.9241 313.554)">
				<stop  offset="0" style="stop-color:#DA4200"/>
				<stop  offset="0.1801" style="stop-color:#B23310;stop-opacity:0.8199"/>
				<stop  offset="0.459" style="stop-color:#791D26;stop-opacity:0.541"/>
				<stop  offset="0.6985" style="stop-color:#500D36;stop-opacity:0.3015"/>
				<stop  offset="0.8866" style="stop-color:#36043F;stop-opacity:0.1134"/>
				<stop  offset="1" style="stop-color:#2D0043;stop-opacity:0"/>
			</linearGradient>
			<path fill="url(#SVGID_12_)" d="M480.219,144.371L480.219,144.371c0.221,0.221,0.221,0.578,0,0.799l-83.167,83.167
				c-0.221,0.221-0.578,0.221-0.799,0l0,0c-0.221-0.221-0.221-0.578,0-0.799l83.167-83.167
				C479.641,144.151,479.998,144.151,480.219,144.371z"/>
			<g>
				<g>
					<path fill="#DA4200" d="M291.008,10.266c3.217,0,3.223-5,0-5C287.79,5.266,287.785,10.266,291.008,10.266L291.008,10.266z"/>
				</g>
			</g>
			<g>
				<g>
					<path fill="#DA4200" d="M287.408,43.965c6.435,0,6.445-10,0-10C280.973,33.965,280.963,43.965,287.408,43.965L287.408,43.965z"
						/>
				</g>
			</g>
			<g>
				<g>
					<path fill="#DA4200" d="M421.803,87.564c6.435,0,6.445-10,0-10C415.369,77.564,415.358,87.564,421.803,87.564L421.803,87.564z"
						/>
				</g>
			</g>
			<path fill="none" stroke="#FB38DF" stroke-width="0.75" stroke-miterlimit="10" d="M247.658,45.095
				c3.508-3.215,8.314-4.105,12.55-2.776c-0.47-2.137-1.481-4.185-3.066-5.914c-1.585-1.73-3.536-2.915-5.624-3.57
				C252.472,37.17,251.167,41.881,247.658,45.095z"/>
			<g>
				<g>
					<path fill="#DA4200" d="M273.135,99.123c7.721,0,7.734-12,0-12C265.413,87.123,265.401,99.123,273.135,99.123L273.135,99.123z"
						/>
				</g>
			</g>
			<g>
				<g>
					<path fill="#DA4200" d="M430.095,212.763c3.861,0,3.867-6,0-6C426.234,206.763,426.228,212.763,430.095,212.763
						L430.095,212.763z"/>
				</g>
			</g>
		</g>
		<g>
			<g>
				<path fill="#DACC00" d="M102.668,329.332L102.668,329.332c5.623,5.623,5.623,14.741,0,20.364L-82.304,534.668
					c-5.623,5.623-14.741,5.623-20.364,0h0c-5.623-5.623-5.623-14.741,0-20.364L82.304,329.332
					C87.928,323.708,97.045,323.708,102.668,329.332z"/>
				<path fill="#FB38DF" d="M51.476,337.251L51.476,337.251c3.749,3.749,3.749,9.827,0,13.576L-71.839,474.142
					c-3.749,3.749-9.827,3.749-13.576,0h0c-3.749-3.749-3.749-9.827,0-13.576L37.9,337.251
					C41.648,333.502,47.727,333.502,51.476,337.251z"/>
				<path fill="#DA4200" d="M108.608,359.878L108.608,359.878c1.874,1.874,1.874,4.914,0,6.788L0,475.273
					c-1.874,1.874-4.914,1.874-6.788,0h0c-1.874-1.874-1.874-4.914,0-6.788L101.82,359.878
					C103.694,358.003,106.733,358.003,108.608,359.878z"/>
			</g>
			<g>
				<g>
					<path fill="#FFFFFF" d="M130.193,396.606c3.217,0,3.223-5,0-5C126.975,391.606,126.97,396.606,130.193,396.606L130.193,396.606
						z"/>
				</g>
			</g>
			<g>
				<g>
					<path fill="#FFFFFF" d="M64.195,330.737c8.365,0,8.379-13,0-13C55.83,317.737,55.816,330.737,64.195,330.737L64.195,330.737z"
						/>
				</g>
			</g>
			<g>
				<g>
					<path fill="#FFFFFF" d="M13.797,321.537c5.791,0,5.801-9,0-9C8.006,312.537,7.996,321.537,13.797,321.537L13.797,321.537z"/>
				</g>
			</g>
			<g>
				<g>
					<path fill="#DACC00" d="M131.393,362.336c5.791,0,5.801-9,0-9C125.602,353.336,125.592,362.336,131.393,362.336
						L131.393,362.336z"/>
				</g>
			</g>
			<circle fill="none" stroke="#DACC00" stroke-miterlimit="10" cx="131.393" cy="357.836" r="10.2"/>
			<polygon fill="#DACC00" points="136.05,388.479 121.159,392.47 132.06,403.371 			"/>
			<circle fill="none" stroke="#FB38DF" stroke-miterlimit="10" cx="38.996" cy="317.037" r="7.17"/>
			<g>
				<defs>
					<circle id="SVGID_13_" cx="85.025" cy="303.52" r="13.518"/>
				</defs>
				<clipPath id="SVGID_14_">
					<use xlink:href="#SVGID_13_"  overflow="visible"/>
				</clipPath>
				
					<line clip-path="url(#SVGID_14_)" fill="none" stroke="#FB38DF" stroke-miterlimit="10" x1="96.57" y1="319.96" x2="113.126" y2="286.037"/>
				
					<line clip-path="url(#SVGID_14_)" fill="none" stroke="#FB38DF" stroke-miterlimit="10" x1="94.361" y1="319.922" x2="110.917" y2="285.998"/>
				
					<line clip-path="url(#SVGID_14_)" fill="none" stroke="#FB38DF" stroke-miterlimit="10" x1="92.152" y1="319.883" x2="108.708" y2="285.959"/>
				
					<line clip-path="url(#SVGID_14_)" fill="none" stroke="#FB38DF" stroke-miterlimit="10" x1="89.942" y1="319.844" x2="106.499" y2="285.921"/>
				
					<line clip-path="url(#SVGID_14_)" fill="none" stroke="#FB38DF" stroke-miterlimit="10" x1="87.733" y1="319.806" x2="104.29" y2="285.882"/>
				
					<line clip-path="url(#SVGID_14_)" fill="none" stroke="#FB38DF" stroke-miterlimit="10" x1="85.524" y1="319.767" x2="102.081" y2="285.844"/>
				
					<line clip-path="url(#SVGID_14_)" fill="none" stroke="#FB38DF" stroke-miterlimit="10" x1="83.315" y1="319.729" x2="99.872" y2="285.805"/>
				
					<line clip-path="url(#SVGID_14_)" fill="none" stroke="#FB38DF" stroke-miterlimit="10" x1="81.106" y1="319.69" x2="97.663" y2="285.767"/>
				
					<line clip-path="url(#SVGID_14_)" fill="none" stroke="#FB38DF" stroke-miterlimit="10" x1="78.897" y1="319.651" x2="95.454" y2="285.728"/>
				
					<line clip-path="url(#SVGID_14_)" fill="none" stroke="#FB38DF" stroke-miterlimit="10" x1="76.688" y1="319.613" x2="93.245" y2="285.689"/>
				
					<line clip-path="url(#SVGID_14_)" fill="none" stroke="#FB38DF" stroke-miterlimit="10" x1="74.479" y1="319.574" x2="91.036" y2="285.651"/>
				
					<line clip-path="url(#SVGID_14_)" fill="none" stroke="#FB38DF" stroke-miterlimit="10" x1="72.27" y1="319.536" x2="88.827" y2="285.612"/>
				
					<line clip-path="url(#SVGID_14_)" fill="none" stroke="#FB38DF" stroke-miterlimit="10" x1="70.061" y1="319.497" x2="86.618" y2="285.574"/>
				
					<line clip-path="url(#SVGID_14_)" fill="none" stroke="#FB38DF" stroke-miterlimit="10" x1="67.852" y1="319.459" x2="84.409" y2="285.535"/>
				
					<line clip-path="url(#SVGID_14_)" fill="none" stroke="#FB38DF" stroke-miterlimit="10" x1="65.643" y1="319.42" x2="82.199" y2="285.496"/>
				
					<line clip-path="url(#SVGID_14_)" fill="none" stroke="#FB38DF" stroke-miterlimit="10" x1="63.434" y1="319.381" x2="79.99" y2="285.458"/>
				
					<line clip-path="url(#SVGID_14_)" fill="none" stroke="#FB38DF" stroke-miterlimit="10" x1="61.225" y1="319.343" x2="77.781" y2="285.419"/>
				
					<line clip-path="url(#SVGID_14_)" fill="none" stroke="#FB38DF" stroke-miterlimit="10" x1="59.016" y1="319.304" x2="75.572" y2="285.381"/>
				
					<line clip-path="url(#SVGID_14_)" fill="none" stroke="#FB38DF" stroke-miterlimit="10" x1="56.807" y1="319.266" x2="73.363" y2="285.342"/>
				
					<line clip-path="url(#SVGID_14_)" fill="none" stroke="#FB38DF" stroke-miterlimit="10" x1="54.598" y1="319.227" x2="71.154" y2="285.304"/>
				
					<line clip-path="url(#SVGID_14_)" fill="none" stroke="#FB38DF" stroke-miterlimit="10" x1="52.389" y1="319.189" x2="68.945" y2="285.265"/>
				
					<line clip-path="url(#SVGID_14_)" fill="none" stroke="#FB38DF" stroke-miterlimit="10" x1="50.18" y1="319.15" x2="66.736" y2="285.226"/>
				
					<line clip-path="url(#SVGID_14_)" fill="none" stroke="#FB38DF" stroke-miterlimit="10" x1="47.971" y1="319.111" x2="64.527" y2="285.188"/>
			</g>
			<g>
				<defs>
					<circle id="SVGID_15_" cx="7.084" cy="276.436" r="27.084"/>
				</defs>
				<clipPath id="SVGID_16_">
					<use xlink:href="#SVGID_15_"  overflow="visible"/>
				</clipPath>
				
					<line clip-path="url(#SVGID_16_)" fill="none" stroke="#FB38DF" stroke-miterlimit="10" x1="30.215" y1="309.376" x2="63.387" y2="241.407"/>
				
					<line clip-path="url(#SVGID_16_)" fill="none" stroke="#FB38DF" stroke-miterlimit="10" x1="25.789" y1="309.298" x2="58.961" y2="241.329"/>
				
					<line clip-path="url(#SVGID_16_)" fill="none" stroke="#FB38DF" stroke-miterlimit="10" x1="21.363" y1="309.221" x2="54.535" y2="241.252"/>
				
					<line clip-path="url(#SVGID_16_)" fill="none" stroke="#FB38DF" stroke-miterlimit="10" x1="16.937" y1="309.144" x2="50.109" y2="241.175"/>
				
					<line clip-path="url(#SVGID_16_)" fill="none" stroke="#FB38DF" stroke-miterlimit="10" x1="12.511" y1="309.066" x2="45.683" y2="241.098"/>
				
					<line clip-path="url(#SVGID_16_)" fill="none" stroke="#FB38DF" stroke-miterlimit="10" x1="8.085" y1="308.989" x2="41.257" y2="241.02"/>
				
					<line clip-path="url(#SVGID_16_)" fill="none" stroke="#FB38DF" stroke-miterlimit="10" x1="3.659" y1="308.912" x2="36.831" y2="240.943"/>
				
					<line clip-path="url(#SVGID_16_)" fill="none" stroke="#FB38DF" stroke-miterlimit="10" x1="-0.767" y1="308.834" x2="32.405" y2="240.866"/>
				
					<line clip-path="url(#SVGID_16_)" fill="none" stroke="#FB38DF" stroke-miterlimit="10" x1="-5.193" y1="308.757" x2="27.979" y2="240.788"/>
				
					<line clip-path="url(#SVGID_16_)" fill="none" stroke="#FB38DF" stroke-miterlimit="10" x1="-9.619" y1="308.68" x2="23.553" y2="240.711"/>
				
					<line clip-path="url(#SVGID_16_)" fill="none" stroke="#FB38DF" stroke-miterlimit="10" x1="-14.045" y1="308.603" x2="19.127" y2="240.634"/>
				
					<line clip-path="url(#SVGID_16_)" fill="none" stroke="#FB38DF" stroke-miterlimit="10" x1="-18.471" y1="308.525" x2="14.701" y2="240.557"/>
				
					<line clip-path="url(#SVGID_16_)" fill="none" stroke="#FB38DF" stroke-miterlimit="10" x1="-22.897" y1="308.448" x2="10.275" y2="240.479"/>
				
					<line clip-path="url(#SVGID_16_)" fill="none" stroke="#FB38DF" stroke-miterlimit="10" x1="-27.323" y1="308.371" x2="5.849" y2="240.402"/>
				
					<line clip-path="url(#SVGID_16_)" fill="none" stroke="#FB38DF" stroke-miterlimit="10" x1="-31.749" y1="308.293" x2="1.423" y2="240.325"/>
				
					<line clip-path="url(#SVGID_16_)" fill="none" stroke="#FB38DF" stroke-miterlimit="10" x1="-36.175" y1="308.216" x2="-3.003" y2="240.247"/>
				
					<line clip-path="url(#SVGID_16_)" fill="none" stroke="#FB38DF" stroke-miterlimit="10" x1="-40.601" y1="308.139" x2="-7.429" y2="240.17"/>
				
					<line clip-path="url(#SVGID_16_)" fill="none" stroke="#FB38DF" stroke-miterlimit="10" x1="-45.027" y1="308.061" x2="-11.855" y2="240.093"/>
				
					<line clip-path="url(#SVGID_16_)" fill="none" stroke="#FB38DF" stroke-miterlimit="10" x1="-49.453" y1="307.984" x2="-16.281" y2="240.015"/>
				
					<line clip-path="url(#SVGID_16_)" fill="none" stroke="#FB38DF" stroke-miterlimit="10" x1="-53.879" y1="307.907" x2="-20.707" y2="239.938"/>
				
					<line clip-path="url(#SVGID_16_)" fill="none" stroke="#FB38DF" stroke-miterlimit="10" x1="-58.305" y1="307.83" x2="-25.133" y2="239.861"/>
				
					<line clip-path="url(#SVGID_16_)" fill="none" stroke="#FB38DF" stroke-miterlimit="10" x1="-62.731" y1="307.752" x2="-29.559" y2="239.784"/>
				
					<line clip-path="url(#SVGID_16_)" fill="none" stroke="#FB38DF" stroke-miterlimit="10" x1="-67.157" y1="307.675" x2="-33.985" y2="239.706"/>
			</g>
			<g>
				
					<rect x="148.226" y="397.215" transform="matrix(0.7071 -0.7071 0.7071 0.7071 -241.6399 231.2466)" fill="none" stroke="#FFFFFF" stroke-miterlimit="10" width="20.186" height="20.186"/>
				
					<rect x="151.591" y="400.58" transform="matrix(0.7071 -0.7071 0.7071 0.7071 -241.6399 231.2466)" fill="none" stroke="#FFFFFF" stroke-miterlimit="10" width="13.457" height="13.457"/>
				
					<rect x="154.955" y="403.944" transform="matrix(0.7071 -0.7071 0.7071 0.7071 -241.6399 231.2466)" fill="none" stroke="#FFFFFF" stroke-miterlimit="10" width="6.729" height="6.729"/>
			</g>
			<g>
				
					<rect x="63.012" y="256.021" transform="matrix(0.7071 -0.7071 0.7071 0.7071 -166.097 128.0379)" fill="none" stroke="#FFFFFF" stroke-miterlimit="10" width="16.99" height="16.99"/>
				
					<rect x="65.844" y="258.853" transform="matrix(0.7071 -0.7071 0.7071 0.7071 -166.097 128.0379)" fill="none" stroke="#FFFFFF" stroke-miterlimit="10" width="11.326" height="11.326"/>
				
					<rect x="68.675" y="261.684" transform="matrix(0.7071 -0.7071 0.7071 0.7071 -166.097 128.0379)" fill="none" stroke="#FFFFFF" stroke-miterlimit="10" width="5.663" height="5.663"/>
			</g>
			<g>
				<line fill="none" stroke="#DACC00" stroke-miterlimit="10" x1="145.9" y1="379.326" x2="160.16" y2="365.591"/>
				<line fill="none" stroke="#DACC00" stroke-miterlimit="10" x1="147.732" y1="372.147" x2="161.993" y2="358.412"/>
			</g>
			<g>
				<line fill="none" stroke="#DACC00" stroke-miterlimit="10" x1="133.546" y1="334.664" x2="147.807" y2="320.929"/>
				<line fill="none" stroke="#DACC00" stroke-miterlimit="10" x1="135.378" y1="327.485" x2="149.639" y2="313.75"/>
			</g>
			<g>
				<line fill="none" stroke="#DA4200" stroke-miterlimit="10" x1="42.863" y1="300.459" x2="57.124" y2="286.724"/>
				<line fill="none" stroke="#DA4200" stroke-miterlimit="10" x1="44.696" y1="293.28" x2="58.956" y2="279.545"/>
			</g>
			<g>
				<g>
					<path fill="#DA4200" d="M46.796,259.24c3.217,0,3.223-5,0-5C43.578,254.24,43.573,259.24,46.796,259.24L46.796,259.24z"/>
				</g>
			</g>
			<g>
				<g>
					<path fill="#DA4200" d="M102.027,285.939c5.791,0,5.801-9,0-9C96.235,276.939,96.226,285.939,102.027,285.939L102.027,285.939z
						"/>
				</g>
			</g>
			<polygon fill="none" stroke="#DA4200" stroke-miterlimit="10" points="132.901,391.629 118.009,395.619 128.911,406.52 			"/>
			<polygon fill="#DA4200" points="48.016,231.311 33.125,235.301 44.026,246.203 			"/>
			<polygon fill="none" stroke="#DACC00" stroke-miterlimit="10" points="44.867,234.461 29.975,238.451 40.877,249.352 			"/>
			<polygon fill="#DACC00" points="124.034,297.293 113.754,300.047 121.279,307.573 			"/>
			<polygon fill="none" stroke="#DA4200" stroke-miterlimit="10" points="121.86,299.467 111.58,302.221 119.105,309.747 			"/>
			<g>
				<g>
					<path fill="#DA4200" d="M117.793,332.737c5.791,0,5.801-9,0-9C112.002,323.737,111.992,332.737,117.793,332.737
						L117.793,332.737z"/>
				</g>
			</g>
			<g>
				<g>
					<path fill="#DA4200" d="M111.393,383.035c2.574,0,2.578-4,0-4C108.819,379.035,108.815,383.035,111.393,383.035
						L111.393,383.035z"/>
				</g>
			</g>
			<g>
				<g>
					<path fill="#DA4200" d="M109.793,352.936c1.93,0,1.934-3,0-3C107.863,349.936,107.86,352.936,109.793,352.936L109.793,352.936z
						"/>
				</g>
			</g>
			<g>
				<g>
					<path fill="#DA4200" d="M61.395,344.137c1.93,0,1.934-3,0-3C59.465,341.137,59.462,344.137,61.395,344.137L61.395,344.137z"/>
				</g>
			</g>
			<g>
				<defs>
					
						<rect id="SVGID_17_" x="60.387" y="405.632" transform="matrix(-0.7071 0.7071 -0.7071 -0.7071 467.9453 679.6664)" width="65.644" height="62.231"/>
				</defs>
				<clipPath id="SVGID_18_">
					<use xlink:href="#SVGID_17_"  overflow="visible"/>
				</clipPath>
				<g clip-path="url(#SVGID_18_)">
					
						<line fill="none" stroke="#DA4200" stroke-linecap="round" stroke-miterlimit="10" x1="160.263" y1="444.558" x2="85.941" y2="370.236"/>
					
						<line fill="none" stroke="#DA4200" stroke-linecap="round" stroke-miterlimit="10" x1="156.263" y1="448.559" x2="81.94" y2="374.236"/>
					
						<line fill="none" stroke="#DA4200" stroke-linecap="round" stroke-miterlimit="10" x1="152.262" y1="452.559" x2="77.94" y2="378.236"/>
					
						<line fill="none" stroke="#DA4200" stroke-linecap="round" stroke-miterlimit="10" x1="148.262" y1="456.559" x2="73.94" y2="382.237"/>
					
						<line fill="none" stroke="#DA4200" stroke-linecap="round" stroke-miterlimit="10" x1="144.262" y1="460.56" x2="69.939" y2="386.237"/>
					
						<line fill="none" stroke="#DA4200" stroke-linecap="round" stroke-miterlimit="10" x1="140.261" y1="464.56" x2="65.939" y2="390.238"/>
					
						<line fill="none" stroke="#DA4200" stroke-linecap="round" stroke-miterlimit="10" x1="136.261" y1="468.56" x2="61.938" y2="394.238"/>
					
						<line fill="none" stroke="#DA4200" stroke-linecap="round" stroke-miterlimit="10" x1="132.261" y1="472.561" x2="57.938" y2="398.238"/>
					
						<line fill="none" stroke="#DA4200" stroke-linecap="round" stroke-miterlimit="10" x1="128.26" y1="476.561" x2="53.938" y2="402.239"/>
					
						<line fill="none" stroke="#DA4200" stroke-linecap="round" stroke-miterlimit="10" x1="124.26" y1="480.562" x2="49.937" y2="406.239"/>
					
						<line fill="none" stroke="#DA4200" stroke-linecap="round" stroke-miterlimit="10" x1="120.259" y1="484.562" x2="45.937" y2="410.239"/>
					
						<line fill="none" stroke="#DA4200" stroke-linecap="round" stroke-miterlimit="10" x1="116.259" y1="488.562" x2="41.936" y2="414.24"/>
					
						<line fill="none" stroke="#DA4200" stroke-linecap="round" stroke-miterlimit="10" x1="112.259" y1="492.563" x2="37.936" y2="418.24"/>
					
						<line fill="none" stroke="#DA4200" stroke-linecap="round" stroke-miterlimit="10" x1="108.258" y1="496.563" x2="33.936" y2="422.241"/>
					
						<line fill="none" stroke="#DA4200" stroke-linecap="round" stroke-miterlimit="10" x1="104.258" y1="500.564" x2="29.935" y2="426.241"/>
					
						<line fill="none" stroke="#DA4200" stroke-linecap="round" stroke-miterlimit="10" x1="100.257" y1="504.564" x2="25.935" y2="430.241"/>
					
						<line fill="none" stroke="#DA4200" stroke-linecap="round" stroke-miterlimit="10" x1="96.257" y1="508.564" x2="21.935" y2="434.242"/>
				</g>
			</g>
			
				<linearGradient id="SVGID_19_" gradientUnits="userSpaceOnUse" x1="-257.5709" y1="245.5038" x2="-257.5709" y2="320.4913" gradientTransform="matrix(0.3228 0.3228 -0.7699 0.7699 460.2776 245.5944)">
				<stop  offset="0" style="stop-color:#DACC00"/>
				<stop  offset="0.2723" style="stop-color:#9E8517;stop-opacity:0.7277"/>
				<stop  offset="0.5215" style="stop-color:#6D4C2A;stop-opacity:0.4785"/>
				<stop  offset="0.7334" style="stop-color:#4A2338;stop-opacity:0.2666"/>
				<stop  offset="0.8998" style="stop-color:#350940;stop-opacity:0.1002"/>
				<stop  offset="1" style="stop-color:#2D0043;stop-opacity:0"/>
			</linearGradient>
			<path fill="url(#SVGID_19_)" d="M114.429,425.153L114.429,425.153c-0.221-0.221-0.221-0.578,0-0.799l83.167-83.167
				c0.221-0.221,0.578-0.221,0.799,0l0,0c0.221,0.221,0.221,0.578,0,0.799l-83.167,83.167
				C115.007,425.373,114.649,425.373,114.429,425.153z"/>
			
				<linearGradient id="SVGID_20_" gradientUnits="userSpaceOnUse" x1="-542.0524" y1="258.8817" x2="-542.0524" y2="333.8691" gradientTransform="matrix(0.3228 0.3228 -0.7699 0.7699 460.2776 245.5944)">
				<stop  offset="0" style="stop-color:#DACC00"/>
				<stop  offset="0.2723" style="stop-color:#9E8517;stop-opacity:0.7277"/>
				<stop  offset="0.5215" style="stop-color:#6D4C2A;stop-opacity:0.4785"/>
				<stop  offset="0.7334" style="stop-color:#4A2338;stop-opacity:0.2666"/>
				<stop  offset="0.8998" style="stop-color:#350940;stop-opacity:0.1002"/>
				<stop  offset="1" style="stop-color:#2D0043;stop-opacity:0"/>
			</linearGradient>
			<path fill="url(#SVGID_20_)" d="M12.296,343.621L12.296,343.621c-0.221-0.221-0.221-0.578,0-0.799l83.167-83.167
				c0.221-0.221,0.578-0.221,0.799,0l0,0c0.221,0.221,0.221,0.578,0,0.799l-83.167,83.167
				C12.874,343.841,12.517,343.841,12.296,343.621z"/>
			
				<linearGradient id="SVGID_21_" gradientUnits="userSpaceOnUse" x1="-170.1087" y1="279.695" x2="-170.1087" y2="354.6825" gradientTransform="matrix(0.3228 0.3228 -0.7699 0.7699 460.2776 245.5944)">
				<stop  offset="0" style="stop-color:#FB38DF"/>
				<stop  offset="0.2774" style="stop-color:#B224A8;stop-opacity:0.7226"/>
				<stop  offset="0.5249" style="stop-color:#79157D;stop-opacity:0.4751"/>
				<stop  offset="0.7354" style="stop-color:#50095D;stop-opacity:0.2646"/>
				<stop  offset="0.9005" style="stop-color:#36034A;stop-opacity:0.0995"/>
				<stop  offset="1" style="stop-color:#2D0043;stop-opacity:0"/>
			</linearGradient>
			<path fill="url(#SVGID_21_)" d="M116.336,479.711L116.336,479.711c-0.221-0.221-0.221-0.578,0-0.799l83.167-83.167
				c0.221-0.221,0.578-0.221,0.799,0l0,0c0.221,0.221,0.221,0.578,0,0.799l-83.167,83.167
				C116.915,479.932,116.557,479.932,116.336,479.711z"/>
			
				<linearGradient id="SVGID_22_" gradientUnits="userSpaceOnUse" x1="-722.5121" y1="261.819" x2="-722.5121" y2="336.8065" gradientTransform="matrix(0.3228 0.3228 -0.7699 0.7699 460.2776 245.5944)">
				<stop  offset="0" style="stop-color:#DA4200"/>
				<stop  offset="0.1801" style="stop-color:#B23310;stop-opacity:0.8199"/>
				<stop  offset="0.459" style="stop-color:#791D26;stop-opacity:0.541"/>
				<stop  offset="0.6985" style="stop-color:#500D36;stop-opacity:0.3015"/>
				<stop  offset="0.8866" style="stop-color:#36043F;stop-opacity:0.1134"/>
				<stop  offset="1" style="stop-color:#2D0043;stop-opacity:0"/>
			</linearGradient>
			<path fill="url(#SVGID_22_)" d="M-48.219,287.629L-48.219,287.629c-0.221-0.221-0.221-0.578,0-0.799l83.167-83.167
				c0.221-0.221,0.578-0.221,0.799,0l0,0c0.221,0.221,0.221,0.578,0,0.799l-83.167,83.167
				C-47.641,287.849-47.998,287.849-48.219,287.629z"/>
			<g>
				<g>
					<path fill="#DA4200" d="M140.992,426.734c3.217,0,3.223-5,0-5C137.775,421.734,137.77,426.734,140.992,426.734L140.992,426.734
						z"/>
				</g>
			</g>
			<g>
				<g>
					<path fill="#DA4200" d="M144.592,398.035c6.435,0,6.445-10,0-10C138.158,388.035,138.147,398.035,144.592,398.035
						L144.592,398.035z"/>
				</g>
			</g>
			<g>
				<g>
					<path fill="#DA4200" d="M10.197,354.436c6.435,0,6.445-10,0-10C3.762,344.436,3.752,354.436,10.197,354.436L10.197,354.436z"/>
				</g>
			</g>
			<path fill="none" stroke="#FB38DF" stroke-width="0.75" stroke-miterlimit="10" d="M184.342,386.905
				c-3.508,3.215-8.314,4.105-12.55,2.776c0.47,2.137,1.481,4.185,3.066,5.914c1.585,1.73,3.536,2.915,5.624,3.57
				C179.528,394.83,180.833,390.119,184.342,386.905z"/>
			<g>
				<g>
					<path fill="#DA4200" d="M158.865,344.877c7.721,0,7.734-12,0-12C151.144,332.877,151.131,344.877,158.865,344.877
						L158.865,344.877z"/>
				</g>
			</g>
			<g>
				<g>
					<path fill="#DA4200" d="M1.905,225.237c3.861,0,3.867-6,0-6C-1.955,219.237-1.962,225.237,1.905,225.237L1.905,225.237z"/>
				</g>
			</g>
		</g>
	</g>
</g>
</svg>
